<svg xmlns="http://www.w3.org/2000/svg" xmlns:xlink="http://www.w3.org/1999/xlink" width="1920" zoomAndPan="magnify" viewBox="0 0 1440 809.999993" height="1080" preserveAspectRatio="xMidYMid meet" version="1.0"><defs><g/><clipPath id="e49bfeed50"><path d="M 669 289.5 L 676 289.5 L 676 363 L 669 363 Z M 669 289.5 " clip-rule="nonzero"/></clipPath><clipPath id="bbbe03fd22"><path d="M 765 289.5 L 771 289.5 L 771 363 L 765 363 Z M 765 289.5 " clip-rule="nonzero"/></clipPath><clipPath id="b83c8b8192"><path d="M 612 511 L 828 511 L 828 520.5 L 612 520.5 Z M 612 511 " clip-rule="nonzero"/></clipPath></defs><g clip-path="url(#e49bfeed50)"><path fill="#2980b9" d="M 669.613281 289.5 L 675.144531 289.5 L 675.144531 362.9375 L 669.613281 362.9375 Z M 669.613281 289.5 " fill-opacity="1" fill-rule="nonzero"/></g><g clip-path="url(#bbbe03fd22)"><path fill="#2980b9" d="M 765.203125 289.5 L 770.734375 289.5 L 770.734375 362.9375 L 765.203125 362.9375 Z M 765.203125 289.5 " fill-opacity="1" fill-rule="nonzero"/></g><path fill="#216694" d="M 765.203125 351.035156 L 765.203125 352.503906 L 770.734375 352.503906 L 770.734375 351.035156 Z M 765.203125 351.035156 " fill-opacity="1" fill-rule="nonzero"/><path fill="#9cdcff" d="M 625.25 400.578125 L 814.710938 400.578125 L 814.710938 511.027344 L 625.25 511.027344 Z M 625.25 400.578125 " fill-opacity="1" fill-rule="nonzero"/><path fill="#89bcd8" d="M 625.25 400.578125 L 625.25 420.265625 C 625.597656 420.285156 625.945312 420.300781 626.300781 420.300781 C 635.042969 420.300781 642.082031 413.691406 642.082031 405.488281 C 642.082031 413.691406 649.117188 420.300781 657.863281 420.300781 C 666.605469 420.300781 673.644531 413.691406 673.644531 405.488281 C 673.644531 413.691406 680.683594 420.300781 689.425781 420.300781 C 698.167969 420.300781 705.207031 413.691406 705.207031 405.488281 C 705.207031 413.691406 712.246094 420.300781 720.988281 420.300781 C 729.730469 420.300781 736.773438 413.691406 736.773438 405.488281 C 736.773438 413.691406 743.808594 420.300781 752.554688 420.300781 C 761.296875 420.300781 768.335938 413.691406 768.335938 405.488281 C 768.335938 413.691406 775.371094 420.300781 784.117188 420.300781 C 792.859375 420.300781 799.898438 413.691406 799.898438 405.488281 C 799.898438 413.386719 806.421875 419.800781 814.710938 420.269531 L 814.710938 400.578125 Z M 625.25 400.578125 " fill-opacity="1" fill-rule="nonzero"/><path fill="#ecf0f1" d="M 609.445312 390.519531 L 830.550781 390.632812 L 797.136719 361.296875 L 640.34375 360.882812 Z M 609.445312 390.519531 " fill-opacity="1" fill-rule="nonzero"/><path fill="#3498db" d="M 641.28125 390.511719 L 664.601562 360.820312 L 687.425781 360.96875 L 672.707031 390.582031 Z M 641.28125 390.511719 " fill-opacity="1" fill-rule="nonzero"/><path fill="#3498db" d="M 709.847656 361.050781 L 731.464844 361.09375 L 735.820312 390.535156 L 704.261719 390.515625 Z M 709.847656 361.050781 " fill-opacity="1" fill-rule="nonzero"/><path fill="#3498db" d="M 754.6875 361.207031 L 767.421875 390.527344 L 799.035156 390.699219 L 777.242188 361.113281 Z M 754.6875 361.207031 " fill-opacity="1" fill-rule="nonzero"/><path fill="#bdc3c7" d="M 609.570312 390.511719 L 609.570312 404.121094 C 609.570312 412.324219 616.609375 418.933594 625.351562 418.933594 C 634.09375 418.933594 641.132812 412.324219 641.132812 404.121094 L 641.132812 390.511719 Z M 609.570312 390.511719 " fill-opacity="1" fill-rule="nonzero"/><path fill="#2980b9" d="M 641.132812 390.511719 L 641.132812 404.121094 C 641.132812 412.324219 648.171875 418.933594 656.914062 418.933594 C 665.65625 418.933594 672.695312 412.324219 672.695312 404.121094 L 672.695312 390.511719 C 672.699219 390.511719 641.132812 390.511719 641.132812 390.511719 Z M 641.132812 390.511719 " fill-opacity="1" fill-rule="nonzero"/><path fill="#bdc3c7" d="M 672.699219 390.511719 L 672.699219 404.121094 C 672.699219 412.324219 679.734375 418.933594 688.480469 418.933594 C 697.222656 418.933594 704.261719 412.324219 704.261719 404.121094 L 704.261719 390.511719 Z M 672.699219 390.511719 " fill-opacity="1" fill-rule="nonzero"/><path fill="#2980b9" d="M 704.261719 390.511719 L 704.261719 404.121094 C 704.261719 412.324219 711.300781 418.933594 720.042969 418.933594 C 728.785156 418.933594 735.824219 412.324219 735.824219 404.121094 L 735.824219 390.511719 Z M 704.261719 390.511719 " fill-opacity="1" fill-rule="nonzero"/><path fill="#bdc3c7" d="M 735.824219 390.511719 L 735.824219 404.121094 C 735.824219 412.324219 742.863281 418.933594 751.605469 418.933594 C 760.347656 418.933594 767.386719 412.324219 767.386719 404.121094 L 767.386719 390.511719 Z M 735.824219 390.511719 " fill-opacity="1" fill-rule="nonzero"/><path fill="#2980b9" d="M 767.386719 390.511719 L 767.386719 404.121094 C 767.386719 412.324219 774.425781 418.933594 783.167969 418.933594 C 791.914062 418.933594 798.949219 412.324219 798.949219 404.121094 L 798.949219 390.511719 Z M 767.386719 390.511719 " fill-opacity="1" fill-rule="nonzero"/><path fill="#bdc3c7" d="M 798.953125 390.511719 L 798.953125 404.121094 C 798.953125 412.324219 805.988281 418.933594 814.734375 418.933594 C 823.476562 418.933594 830.515625 412.324219 830.515625 404.121094 L 830.515625 390.511719 Z M 798.953125 390.511719 " fill-opacity="1" fill-rule="nonzero"/><g clip-path="url(#b83c8b8192)"><path fill="#7f8c8d" d="M 612.605469 511.027344 L 827.355469 511.027344 L 827.355469 520.5 L 612.605469 520.5 Z M 612.605469 511.027344 " fill-opacity="1" fill-rule="nonzero"/></g><path fill="#6e7374" d="M 642.324219 426.585938 C 641.507812 426.585938 640.84375 427.25 640.84375 428.070312 L 640.84375 475.992188 C 640.84375 476.8125 641.507812 477.472656 642.324219 477.472656 L 797.636719 477.472656 C 798.453125 477.472656 799.117188 476.808594 799.117188 475.992188 L 799.117188 428.070312 C 799.117188 427.25 798.453125 426.585938 797.636719 426.585938 C 797.636719 426.585938 642.324219 426.585938 642.324219 426.585938 Z M 642.324219 426.585938 " fill-opacity="1" fill-rule="nonzero"/><path fill="#b3c7d6" d="M 643.808594 429.550781 L 796.15625 429.550781 L 796.15625 474.511719 L 643.808594 474.511719 Z M 643.808594 429.550781 " fill-opacity="1" fill-rule="nonzero"/><path fill="#c2d2de" d="M 644.96875 430.664062 L 794.6875 430.664062 L 794.6875 473.398438 L 644.96875 473.398438 Z M 644.96875 430.664062 " fill-opacity="1" fill-rule="nonzero"/><path fill="#216694" d="M 669.613281 351.035156 L 669.613281 352.503906 L 675.144531 352.503906 L 675.144531 351.035156 Z M 669.613281 351.035156 " fill-opacity="1" fill-rule="nonzero"/><path fill="#3498db" d="M 661.847656 295.847656 C 660.535156 295.847656 659.40625 296.597656 658.691406 297.597656 C 657.972656 298.597656 657.589844 299.871094 657.589844 301.25 L 657.589844 345.628906 C 657.589844 347.011719 657.972656 348.285156 658.691406 349.285156 C 659.40625 350.28125 660.535156 351.035156 661.847656 351.035156 L 777.804688 351.035156 C 779.121094 351.035156 780.25 350.28125 780.964844 349.285156 C 781.679688 348.285156 782.066406 347.011719 782.066406 345.628906 L 782.066406 301.25 C 782.066406 299.871094 781.679688 298.597656 780.964844 297.597656 C 780.25 296.597656 779.121094 295.847656 777.804688 295.847656 Z M 661.847656 295.847656 " fill-opacity="1" fill-rule="nonzero"/><path fill="#ecf0f1" d="M 661.847656 298.589844 L 777.804688 298.589844 C 778.089844 298.589844 778.40625 298.738281 778.734375 299.195312 C 779.0625 299.65625 779.320312 300.398438 779.320312 301.25 L 779.320312 345.628906 C 779.320312 346.484375 779.0625 347.226562 778.734375 347.683594 C 778.40625 348.144531 778.089844 348.289062 777.804688 348.289062 L 661.847656 348.289062 C 661.5625 348.289062 661.25 348.144531 660.921875 347.683594 C 660.59375 347.226562 660.335938 346.484375 660.335938 345.628906 L 660.335938 301.25 C 660.335938 300.398438 660.59375 299.65625 660.921875 299.195312 C 661.25 298.738281 661.5625 298.589844 661.847656 298.589844 Z M 661.847656 298.589844 " fill-opacity="1" fill-rule="nonzero"/><path fill="#bdc0c1" d="M 701.988281 304.40625 C 699.160156 304.40625 696.269531 304.871094 693.324219 305.792969 C 690.398438 306.683594 687.886719 307.960938 685.8125 309.636719 C 683.105469 311.800781 681.582031 314.117188 681.582031 316.570312 C 681.582031 318.171875 682.28125 319.644531 683.53125 320.820312 L 683.539062 320.824219 L 683.542969 320.828125 C 684.820312 321.988281 686.476562 322.796875 688.457031 323.273438 L 688.460938 323.273438 L 697.539062 325.335938 C 698.882812 325.761719 699.84375 326.261719 700.410156 326.757812 C 700.976562 327.261719 701.171875 327.691406 701.171875 328.230469 C 701.171875 328.816406 700.921875 329.621094 700.320312 330.601562 L 700.3125 330.617188 C 698.839844 333.148438 696.4375 335.125 692.980469 336.550781 C 689.492188 337.992188 685.957031 338.710938 682.347656 338.710938 C 680.820312 338.710938 679.414062 338.566406 678.113281 338.308594 C 677.078125 337.277344 676.320312 336.0625 675.871094 334.59375 L 675.871094 334.589844 L 675.867188 334.585938 C 675.839844 334.488281 675.6875 333.738281 675.527344 332.628906 C 675.363281 331.515625 675.160156 329.976562 674.917969 328.011719 L 674.921875 328.03125 C 674.808594 326.921875 674.570312 326.015625 674.074219 325.304688 C 673.582031 324.59375 672.742188 324.144531 671.878906 324.144531 C 669.941406 324.144531 668.28125 325.347656 667.148438 327.347656 C 666.597656 328.28125 666.347656 329.402344 666.347656 330.660156 C 666.347656 332.007812 666.789062 333.425781 667.597656 334.933594 C 668.398438 336.425781 669.289062 337.597656 670.316406 338.425781 L 670.320312 338.425781 C 671.878906 339.679688 674.113281 340.476562 676.949219 340.945312 C 679.042969 342.59375 680.882812 343.554688 682.605469 343.554688 C 683.035156 343.554688 683.402344 343.527344 683.785156 343.363281 C 684.171875 343.195312 684.617188 342.679688 684.617188 342.164062 C 684.617188 341.921875 684.492188 341.625 684.3125 341.425781 C 689.082031 341.292969 693.320312 340.472656 696.964844 338.867188 C 701.726562 336.824219 704.84375 333.753906 706.035156 329.730469 C 706.296875 328.832031 706.433594 327.96875 706.433594 327.140625 C 706.433594 325.078125 705.417969 323.316406 703.621094 322.21875 C 702.238281 321.316406 700.316406 320.683594 697.804688 320.222656 L 691.722656 319.089844 C 689.8125 318.640625 688.429688 318.0625 687.597656 317.449219 C 686.765625 316.832031 686.484375 316.28125 686.484375 315.585938 C 686.484375 314.660156 687.109375 313.445312 688.671875 312.015625 L 688.675781 312.011719 L 688.679688 312.003906 C 690.226562 310.554688 692.140625 309.488281 694.476562 308.796875 L 694.488281 308.796875 C 696.859375 308.0625 699.21875 307.699219 701.574219 307.699219 C 703.628906 307.699219 705.261719 307.941406 706.453125 308.378906 C 707.632812 308.8125 708.359375 309.410156 708.789062 310.164062 C 709.109375 310.816406 709.257812 311.390625 709.257812 311.90625 C 709.257812 312.945312 708.871094 313.558594 707.800781 314.128906 C 707.570312 314.230469 706.917969 314.375 705.949219 314.40625 C 705.410156 314.425781 704.992188 314.460938 704.605469 314.566406 C 704.414062 314.621094 704.226562 314.683594 704.011719 314.84375 C 703.800781 315.007812 703.554688 315.363281 703.554688 315.742188 C 703.554688 316.292969 704.027344 316.835938 704.453125 317.015625 C 704.882812 317.199219 705.308594 317.234375 705.824219 317.234375 C 706.925781 317.234375 708.132812 316.9375 709.480469 316.390625 C 711.824219 315.464844 713.222656 313.589844 713.222656 311.234375 C 713.222656 308.816406 711.734375 306.847656 709.214844 305.679688 L 709.207031 305.675781 L 709.203125 305.671875 C 707.246094 304.804688 704.839844 304.402344 701.988281 304.402344 Z M 717.332031 315.289062 C 716.605469 315.289062 716.332031 315.640625 715.945312 316.007812 C 715.558594 316.375 715.132812 316.867188 714.632812 317.511719 L 714.628906 317.515625 C 713.941406 318.417969 713.34375 319.183594 712.785156 319.902344 L 710.15625 319.902344 L 710.078125 319.914062 C 709.898438 319.945312 709.765625 319.953125 709.765625 319.953125 L 709.632812 319.953125 L 709.507812 319.988281 C 708.996094 320.140625 708.542969 320.355469 708.179688 320.714844 C 707.820312 321.078125 707.601562 321.609375 707.601562 322.117188 C 707.601562 322.710938 707.839844 323.351562 708.324219 323.734375 C 708.722656 324.050781 709.199219 324.15625 709.699219 324.195312 C 709.097656 325.339844 708.511719 326.457031 707.597656 328.285156 C 706.320312 330.800781 705.628906 332.816406 705.628906 334.503906 C 705.628906 336.0625 705.988281 337.359375 706.988281 338.097656 L 707.011719 338.113281 L 707.035156 338.125 C 707.910156 338.695312 708.980469 338.949219 710.179688 338.949219 C 712.835938 338.949219 715.578125 338.050781 718.375 336.328125 C 719.257812 335.800781 720.078125 335.144531 720.894531 334.484375 C 720.933594 335.339844 721.164062 336.160156 721.613281 336.882812 C 722.242188 338.003906 723.316406 338.742188 724.527344 338.742188 L 725.359375 338.742188 C 727.824219 338.742188 730.269531 336.808594 733.066406 333.378906 C 734.246094 331.9375 735.140625 330.691406 735.757812 329.613281 C 736.355469 328.570312 736.703125 327.695312 736.730469 326.828125 C 737.742188 326.390625 738.6875 325.964844 739.304688 325.585938 C 739.683594 325.347656 739.992188 325.121094 740.25 324.859375 C 740.507812 324.59375 740.757812 324.269531 740.785156 323.78125 L 740.882812 322.167969 L 739.445312 322.90625 C 738.253906 323.519531 737.386719 323.765625 737.0625 323.777344 C 737.117188 323.414062 737.210938 323.003906 737.210938 322.691406 C 737.210938 321.613281 736.949219 320.648438 736.300781 319.957031 C 735.648438 319.269531 734.691406 318.96875 733.648438 318.96875 C 732.40625 318.96875 731.164062 319.5625 729.847656 320.574219 C 729.527344 320.816406 729.183594 321.171875 728.855469 321.472656 C 728.90625 321.355469 728.980469 321.261719 728.980469 321.082031 C 728.980469 320.605469 728.769531 320.464844 728.671875 320.367188 C 728.570312 320.269531 728.492188 320.214844 728.414062 320.160156 L 728.175781 320.003906 L 720.4375 320.109375 C 719.785156 320.109375 719.394531 320.09375 718.855469 320.085938 C 719.058594 319.839844 719.367188 319.496094 719.523438 319.285156 C 719.746094 318.984375 719.917969 318.726562 720.054688 318.480469 C 720.191406 318.234375 720.324219 318.042969 720.324219 317.613281 C 720.324219 316.8125 719.734375 316.171875 719.058594 315.8125 C 718.464844 315.5 717.921875 315.292969 717.332031 315.292969 Z M 746.875 315.808594 C 745.890625 315.808594 745.046875 316.449219 744.449219 317.34375 C 743.875 318.207031 743.425781 319.375 743.027344 320.855469 C 741.835938 323.160156 739.761719 326.058594 736.796875 329.496094 C 736.164062 330.207031 735.695312 330.738281 735.695312 331.601562 C 735.695312 331.863281 735.828125 332.253906 736.105469 332.476562 C 736.382812 332.699219 736.664062 332.730469 736.875 332.730469 C 737.210938 332.730469 737.367188 332.625 737.511719 332.542969 C 737.652344 332.457031 737.769531 332.371094 737.894531 332.265625 C 738.140625 332.054688 738.414062 331.789062 738.738281 331.441406 C 739.390625 330.742188 740.242188 329.734375 741.320312 328.394531 L 741.328125 328.386719 L 744.382812 324.425781 C 744.507812 324.578125 744.628906 324.738281 744.777344 324.863281 C 745.011719 325.066406 745.28125 325.226562 745.570312 325.339844 C 744.964844 326.296875 744.382812 327.332031 743.855469 328.535156 C 743.058594 330.347656 742.636719 332.0625 742.636719 333.671875 C 742.636719 335.246094 742.996094 336.574219 743.847656 337.515625 C 744.699219 338.460938 745.980469 338.894531 747.445312 338.894531 C 749.5625 338.894531 751.929688 337.75 754.734375 335.652344 L 754.742188 335.648438 L 754.753906 335.640625 C 754.792969 335.609375 754.824219 335.574219 754.863281 335.542969 C 755.019531 336.246094 755.277344 336.910156 755.75 337.445312 C 756.449219 338.230469 757.445312 338.765625 758.652344 339.109375 C 759.066406 339.246094 759.503906 339.308594 759.964844 339.308594 C 762.113281 339.308594 764.480469 338.242188 767.1875 336.285156 C 769.882812 334.335938 772.195312 332.09375 774.117188 329.566406 L 774.125 329.558594 L 774.128906 329.550781 C 774.453125 329.105469 774.71875 328.746094 774.71875 328.128906 C 774.71875 327.84375 774.597656 327.445312 774.308594 327.195312 C 774.019531 326.945312 773.6875 326.894531 773.4375 326.894531 C 773.027344 326.894531 772.734375 327.074219 772.511719 327.25 C 772.289062 327.429688 772.105469 327.636719 771.921875 327.886719 L 771.933594 327.871094 C 770.496094 329.707031 768.75 331.453125 766.691406 333.109375 L 766.683594 333.117188 L 766.671875 333.125 C 764.015625 335.378906 761.898438 336.378906 760.582031 336.378906 C 759.898438 336.378906 759.5625 336.21875 759.351562 335.996094 C 759.136719 335.769531 758.964844 335.359375 758.964844 334.605469 C 758.964844 333.921875 759.136719 333.285156 759.402344 332.65625 C 759.453125 332.65625 759.496094 332.675781 759.546875 332.675781 C 761.671875 332.675781 764.148438 331.707031 767.121094 329.902344 L 767.125 329.902344 C 770.1875 328.0625 771.972656 325.96875 771.972656 323.570312 C 771.972656 322.703125 771.550781 321.875 770.871094 321.320312 C 770.207031 320.714844 769.3125 320.417969 768.355469 320.417969 C 765.535156 320.417969 762.628906 322.203125 759.503906 325.472656 C 757.511719 327.554688 756.175781 329.507812 755.414062 331.382812 C 754.644531 332.113281 753.839844 332.8125 752.96875 333.445312 L 752.964844 333.445312 C 750.730469 335.082031 748.914062 335.808594 747.652344 335.808594 C 747.058594 335.808594 746.785156 335.675781 746.617188 335.492188 C 746.445312 335.308594 746.296875 334.960938 746.296875 334.292969 C 746.296875 333.046875 747.257812 330.890625 749.414062 328.128906 C 749.414062 328.128906 749.414062 328.125 749.417969 328.125 L 753.078125 323.507812 L 753.128906 323.371094 C 753.382812 322.695312 753.066406 321.972656 752.640625 321.5 C 752.238281 321.054688 751.734375 320.675781 751.074219 320.675781 C 750.917969 320.675781 750.78125 320.683594 750.644531 320.695312 C 750.511719 320.707031 750.398438 320.699219 750.144531 320.824219 L 750.109375 320.84375 L 748.738281 321.6875 C 748.074219 322.078125 747.535156 322.230469 747.136719 322.230469 C 746.8125 322.230469 746.71875 322.179688 746.621094 322.144531 L 747.492188 320.984375 L 747.511719 320.957031 C 748.421875 319.824219 748.988281 318.828125 748.988281 317.761719 C 748.988281 317.242188 748.804688 316.664062 748.375 316.289062 C 747.945312 315.921875 747.40625 315.808594 746.875 315.808594 Z M 728.121094 322.128906 C 727.308594 322.9375 726.46875 323.847656 725.574219 324.957031 L 725.570312 324.957031 C 724.433594 326.371094 723.558594 327.640625 722.824219 328.84375 C 720.691406 331.09375 718.703125 332.796875 716.894531 333.925781 C 716.25 334.324219 715.257812 334.792969 713.941406 335.300781 C 712.652344 335.796875 711.644531 336.015625 711.007812 336.015625 C 710.238281 336.015625 709.773438 335.859375 709.566406 335.710938 C 709.363281 335.5625 709.285156 335.445312 709.285156 335.019531 C 709.285156 334.074219 710.066406 331.972656 711.796875 329.125 L 711.800781 329.117188 C 713.464844 326.34375 714.675781 324.667969 715.132812 324.199219 C 715.226562 324.179688 715.234375 324.175781 715.410156 324.148438 C 715.734375 324.097656 716.183594 324.03125 716.761719 323.949219 C 717.910156 323.785156 719.558594 323.566406 721.695312 323.289062 C 723.867188 323.011719 725.496094 322.761719 726.617188 322.539062 C 727.179688 322.425781 727.609375 322.324219 727.953125 322.207031 C 728.011719 322.1875 728.066406 322.152344 728.121094 322.128906 Z M 768.410156 323.765625 C 768.589844 323.765625 768.597656 323.78125 768.707031 323.796875 C 768.207031 325.128906 767.035156 326.472656 765.011719 327.765625 C 763.621094 328.648438 762.535156 329.101562 761.601562 329.378906 C 762.609375 328.082031 763.769531 326.808594 765.265625 325.574219 C 766.828125 324.277344 768.023438 323.765625 768.410156 323.765625 Z M 732.074219 325.078125 C 732.566406 325.796875 733.046875 326.347656 733.53125 326.75 C 733.453125 327.105469 733.285156 327.597656 732.878906 328.285156 C 732.351562 329.179688 731.523438 330.308594 730.40625 331.628906 C 728.1875 334.25 726.390625 335.34375 725.460938 335.34375 C 725.289062 335.34375 725.367188 335.375 725.308594 335.28125 C 725.246094 335.1875 725.136719 334.855469 725.136719 334.296875 C 725.136719 333.484375 726.058594 331.457031 728.152344 328.75 C 729.21875 327.402344 730.148438 326.40625 730.90625 325.785156 C 731.410156 325.367188 731.78125 325.183594 732.074219 325.078125 Z M 670.625 327.546875 L 670.625 327.554688 C 670.746094 328.035156 670.878906 328.722656 671.019531 329.710938 C 671.367188 332.101562 672.023438 334.179688 672.9375 336.003906 C 672.847656 335.925781 672.726562 335.863281 672.648438 335.78125 L 672.644531 335.773438 L 672.640625 335.769531 C 670.925781 334.023438 670.105469 332.019531 670.105469 329.574219 C 670.105469 328.835938 670.222656 328.292969 670.382812 327.945312 C 670.523438 327.640625 670.570312 327.617188 670.625 327.546875 Z M 670.625 327.546875 " fill-opacity="1" fill-rule="nonzero"/><path fill="#3498db" d="M 701.28125 303.863281 C 698.457031 303.863281 695.5625 304.328125 692.621094 305.25 L 692.617188 305.25 C 689.691406 306.140625 687.179688 307.417969 685.105469 309.09375 C 682.398438 311.257812 680.875 313.574219 680.875 316.027344 C 680.875 317.628906 681.574219 319.101562 682.828125 320.277344 L 682.835938 320.285156 C 684.113281 321.445312 685.769531 322.253906 687.75 322.730469 L 687.753906 322.730469 L 696.832031 324.792969 C 698.175781 325.21875 699.136719 325.71875 699.703125 326.214844 C 700.273438 326.71875 700.464844 327.148438 700.464844 327.6875 C 700.464844 328.273438 700.214844 329.078125 699.613281 330.058594 L 699.605469 330.074219 C 698.132812 332.605469 695.730469 334.582031 692.277344 336.007812 C 688.785156 337.453125 685.25 338.167969 681.640625 338.167969 C 680.113281 338.167969 678.710938 338.023438 677.40625 337.765625 C 676.371094 336.734375 675.613281 335.519531 675.164062 334.050781 L 675.164062 334.046875 L 675.160156 334.042969 C 675.132812 333.945312 674.980469 333.195312 674.820312 332.085938 C 674.65625 330.972656 674.453125 329.433594 674.210938 327.46875 L 674.214844 327.488281 C 674.101562 326.378906 673.863281 325.472656 673.367188 324.761719 C 672.875 324.050781 672.039062 323.601562 671.171875 323.601562 C 669.234375 323.601562 667.578125 324.804688 666.441406 326.804688 C 665.890625 327.738281 665.640625 328.859375 665.640625 330.117188 C 665.640625 331.464844 666.082031 332.882812 666.890625 334.390625 C 667.691406 335.882812 668.582031 337.054688 669.609375 337.882812 L 669.613281 337.882812 C 671.171875 339.136719 673.40625 339.933594 676.242188 340.402344 C 678.335938 342.050781 680.175781 343.011719 681.902344 343.011719 C 682.328125 343.011719 682.695312 342.984375 683.082031 342.820312 C 683.464844 342.652344 683.910156 342.136719 683.910156 341.621094 C 683.910156 341.378906 683.785156 341.082031 683.605469 340.882812 C 688.375 340.75 692.613281 339.929688 696.257812 338.324219 C 701.019531 336.28125 704.136719 333.210938 705.328125 329.1875 C 705.589844 328.289062 705.726562 327.425781 705.726562 326.597656 C 705.726562 324.535156 704.710938 322.773438 702.914062 321.675781 C 701.53125 320.773438 699.609375 320.140625 697.097656 319.679688 L 691.015625 318.546875 C 689.109375 318.097656 687.722656 317.519531 686.894531 316.90625 C 686.0625 316.289062 685.777344 315.738281 685.777344 315.042969 C 685.777344 314.117188 686.40625 312.902344 687.964844 311.472656 L 687.96875 311.46875 L 687.972656 311.460938 C 689.519531 310.015625 691.433594 308.945312 693.769531 308.253906 L 693.78125 308.253906 C 696.152344 307.519531 698.511719 307.15625 700.867188 307.15625 C 702.921875 307.15625 704.554688 307.398438 705.746094 307.835938 C 706.925781 308.269531 707.652344 308.867188 708.082031 309.621094 C 708.402344 310.273438 708.550781 310.847656 708.550781 311.363281 C 708.550781 312.402344 708.164062 313.015625 707.09375 313.585938 C 706.867188 313.6875 706.210938 313.832031 705.242188 313.863281 C 704.703125 313.882812 704.285156 313.917969 703.902344 314.023438 C 703.710938 314.078125 703.519531 314.140625 703.308594 314.300781 C 703.09375 314.464844 702.847656 314.820312 702.847656 315.199219 C 702.847656 315.75 703.320312 316.292969 703.746094 316.472656 C 704.175781 316.65625 704.601562 316.691406 705.117188 316.691406 C 706.21875 316.691406 707.425781 316.394531 708.773438 315.847656 C 711.117188 314.921875 712.515625 313.042969 712.515625 310.691406 C 712.515625 308.273438 711.03125 306.304688 708.507812 305.136719 L 708.503906 305.132812 L 708.496094 305.128906 C 706.539062 304.261719 704.132812 303.859375 701.28125 303.859375 Z M 716.625 314.746094 C 715.898438 314.746094 715.625 315.097656 715.238281 315.464844 C 714.851562 315.832031 714.429688 316.324219 713.929688 316.96875 L 713.925781 316.96875 L 713.925781 316.972656 C 713.234375 317.875 712.636719 318.640625 712.078125 319.359375 L 709.449219 319.359375 L 709.371094 319.371094 C 709.191406 319.402344 709.058594 319.410156 709.058594 319.410156 L 708.925781 319.410156 L 708.800781 319.445312 C 708.289062 319.597656 707.835938 319.8125 707.472656 320.171875 C 707.113281 320.535156 706.894531 321.066406 706.894531 321.574219 C 706.894531 322.167969 707.132812 322.808594 707.617188 323.191406 C 708.015625 323.507812 708.492188 323.613281 708.992188 323.652344 C 708.390625 324.796875 707.804688 325.914062 706.890625 327.742188 C 705.613281 330.257812 704.925781 332.273438 704.925781 333.960938 C 704.925781 335.519531 705.28125 336.816406 706.285156 337.554688 L 706.304688 337.570312 L 706.328125 337.582031 C 707.203125 338.152344 708.273438 338.40625 709.472656 338.40625 C 712.128906 338.40625 714.871094 337.507812 717.667969 335.785156 C 718.554688 335.253906 719.371094 334.601562 720.1875 333.941406 C 720.226562 334.796875 720.457031 335.617188 720.90625 336.339844 C 721.535156 337.460938 722.609375 338.199219 723.820312 338.199219 L 724.652344 338.199219 C 727.117188 338.199219 729.566406 336.265625 732.359375 332.832031 L 732.363281 332.832031 C 733.539062 331.394531 734.433594 330.148438 735.050781 329.070312 C 735.648438 328.027344 735.996094 327.152344 736.023438 326.28125 C 737.035156 325.84375 737.980469 325.421875 738.597656 325.042969 C 738.976562 324.804688 739.289062 324.578125 739.546875 324.316406 C 739.800781 324.050781 740.050781 323.726562 740.082031 323.238281 L 740.175781 321.625 L 738.738281 322.363281 C 737.546875 322.976562 736.679688 323.222656 736.355469 323.234375 C 736.410156 322.871094 736.503906 322.457031 736.503906 322.148438 C 736.503906 321.070312 736.242188 320.105469 735.59375 319.414062 C 734.941406 318.726562 733.984375 318.425781 732.941406 318.425781 C 731.699219 318.425781 730.457031 319.019531 729.140625 320.03125 C 728.824219 320.273438 728.480469 320.628906 728.148438 320.925781 C 728.199219 320.8125 728.273438 320.71875 728.273438 320.539062 C 728.273438 320.0625 728.0625 319.921875 727.964844 319.824219 C 727.867188 319.726562 727.789062 319.671875 727.707031 319.617188 L 727.46875 319.460938 L 719.734375 319.566406 C 719.078125 319.566406 718.691406 319.550781 718.148438 319.542969 C 718.351562 319.296875 718.664062 318.953125 718.816406 318.742188 C 719.039062 318.441406 719.210938 318.183594 719.347656 317.9375 C 719.484375 317.691406 719.617188 317.5 719.617188 317.070312 C 719.617188 316.269531 719.027344 315.628906 718.351562 315.269531 C 717.761719 314.953125 717.214844 314.75 716.625 314.75 Z M 746.167969 315.265625 C 745.183594 315.265625 744.339844 315.90625 743.746094 316.800781 C 743.167969 317.664062 742.722656 318.832031 742.320312 320.3125 C 741.128906 322.617188 739.054688 325.515625 736.09375 328.953125 C 735.457031 329.664062 734.988281 330.195312 734.988281 331.058594 C 734.988281 331.320312 735.121094 331.710938 735.398438 331.933594 C 735.675781 332.15625 735.957031 332.1875 736.167969 332.1875 C 736.507812 332.1875 736.664062 332.082031 736.804688 332 C 736.945312 331.914062 737.0625 331.828125 737.1875 331.722656 C 737.4375 331.511719 737.707031 331.246094 738.03125 330.898438 C 738.683594 330.199219 739.539062 329.191406 740.617188 327.851562 L 740.621094 327.84375 L 743.675781 323.882812 C 743.804688 324.035156 743.921875 324.195312 744.070312 324.320312 C 744.304688 324.523438 744.574219 324.683594 744.863281 324.796875 C 744.257812 325.753906 743.679688 326.789062 743.148438 327.992188 C 742.351562 329.804688 741.933594 331.519531 741.933594 333.128906 C 741.933594 334.703125 742.289062 336.03125 743.140625 336.972656 C 743.992188 337.917969 745.273438 338.351562 746.738281 338.351562 C 748.855469 338.351562 751.222656 337.207031 754.027344 335.113281 L 754.039062 335.105469 L 754.046875 335.097656 C 754.085938 335.066406 754.117188 335.03125 754.15625 335 C 754.3125 335.703125 754.570312 336.367188 755.042969 336.902344 C 755.746094 337.691406 756.738281 338.222656 757.945312 338.566406 C 758.359375 338.703125 758.800781 338.765625 759.257812 338.765625 C 761.40625 338.765625 763.773438 337.699219 766.484375 335.742188 C 769.175781 333.792969 771.488281 331.550781 773.410156 329.023438 L 773.425781 329.007812 C 773.746094 328.5625 774.015625 328.203125 774.015625 327.585938 C 774.015625 327.300781 773.894531 326.902344 773.601562 326.652344 C 773.3125 326.402344 772.984375 326.351562 772.730469 326.351562 C 772.320312 326.351562 772.03125 326.53125 771.804688 326.707031 C 771.582031 326.886719 771.402344 327.09375 771.21875 327.34375 L 771.226562 327.328125 C 769.789062 329.164062 768.046875 330.910156 765.988281 332.566406 L 765.976562 332.574219 L 765.96875 332.582031 C 763.3125 334.835938 761.195312 335.835938 759.878906 335.835938 C 759.195312 335.835938 758.859375 335.675781 758.644531 335.453125 C 758.429688 335.226562 758.261719 334.816406 758.261719 334.0625 C 758.261719 333.378906 758.429688 332.742188 758.695312 332.113281 C 758.746094 332.113281 758.792969 332.132812 758.84375 332.132812 C 760.96875 332.132812 763.441406 331.164062 766.414062 329.359375 L 766.417969 329.359375 C 769.480469 327.519531 771.265625 325.425781 771.265625 323.027344 C 771.265625 322.160156 770.84375 321.332031 770.164062 320.777344 C 769.5 320.171875 768.605469 319.875 767.652344 319.875 C 764.828125 319.875 761.921875 321.660156 758.796875 324.929688 C 756.804688 327.011719 755.46875 328.964844 754.707031 330.839844 C 753.9375 331.570312 753.136719 332.273438 752.261719 332.902344 C 750.027344 334.539062 748.210938 335.265625 746.949219 335.265625 C 746.351562 335.265625 746.082031 335.132812 745.910156 334.949219 C 745.738281 334.765625 745.589844 334.417969 745.589844 333.75 C 745.589844 332.503906 746.554688 330.347656 748.707031 327.585938 C 748.710938 327.585938 748.710938 327.582031 748.710938 327.582031 L 752.371094 322.964844 L 752.421875 322.828125 C 752.675781 322.152344 752.363281 321.429688 751.933594 320.957031 C 751.53125 320.511719 751.03125 320.132812 750.371094 320.132812 C 750.210938 320.132812 750.074219 320.140625 749.941406 320.152344 C 749.804688 320.164062 749.691406 320.15625 749.4375 320.28125 L 749.402344 320.300781 L 748.03125 321.144531 C 747.367188 321.535156 746.832031 321.6875 746.429688 321.6875 C 746.105469 321.6875 746.011719 321.636719 745.914062 321.601562 L 746.785156 320.441406 L 746.804688 320.414062 C 747.714844 319.28125 748.285156 318.285156 748.285156 317.21875 C 748.285156 316.699219 748.097656 316.121094 747.667969 315.746094 C 747.242188 315.375 746.699219 315.265625 746.167969 315.265625 Z M 727.414062 321.585938 C 726.601562 322.390625 725.765625 323.304688 724.867188 324.414062 C 723.726562 325.828125 722.851562 327.097656 722.117188 328.300781 C 719.984375 330.550781 717.996094 332.253906 716.1875 333.382812 C 715.546875 333.78125 714.550781 334.25 713.238281 334.757812 C 711.949219 335.253906 710.941406 335.472656 710.304688 335.472656 C 709.535156 335.472656 709.066406 335.316406 708.863281 335.167969 C 708.65625 335.019531 708.582031 334.902344 708.582031 334.476562 C 708.582031 333.53125 709.359375 331.429688 711.089844 328.578125 L 711.09375 328.578125 L 711.09375 328.574219 C 712.757812 325.800781 713.96875 324.125 714.425781 323.65625 C 714.519531 323.636719 714.53125 323.632812 714.707031 323.605469 C 715.027344 323.550781 715.480469 323.484375 716.054688 323.402344 C 717.203125 323.242188 718.851562 323.023438 720.992188 322.746094 C 723.160156 322.46875 724.792969 322.21875 725.914062 321.996094 C 726.472656 321.882812 726.902344 321.78125 727.246094 321.664062 C 727.304688 321.644531 727.359375 321.609375 727.414062 321.585938 Z M 767.703125 323.222656 C 767.882812 323.222656 767.894531 323.238281 768 323.253906 C 767.5 324.585938 766.328125 325.929688 764.304688 327.222656 C 762.917969 328.105469 761.828125 328.558594 760.894531 328.835938 C 761.902344 327.539062 763.0625 326.265625 764.558594 325.03125 L 764.5625 325.03125 C 766.121094 323.734375 767.320312 323.222656 767.703125 323.222656 Z M 731.367188 324.53125 C 731.859375 325.253906 732.34375 325.804688 732.824219 326.207031 C 732.746094 326.5625 732.578125 327.054688 732.175781 327.742188 C 731.644531 328.636719 730.820312 329.761719 729.699219 331.085938 C 727.484375 333.707031 725.683594 334.800781 724.753906 334.800781 C 724.582031 334.800781 724.660156 334.832031 724.601562 334.738281 C 724.542969 334.644531 724.433594 334.3125 724.433594 333.753906 C 724.433594 332.941406 725.351562 330.914062 727.449219 328.207031 C 728.511719 326.859375 729.445312 325.863281 730.199219 325.242188 C 730.703125 324.824219 731.074219 324.640625 731.367188 324.53125 Z M 669.917969 327.003906 L 669.917969 327.011719 C 670.039062 327.492188 670.171875 328.179688 670.3125 329.167969 C 670.660156 331.554688 671.316406 333.636719 672.230469 335.460938 C 672.144531 335.382812 672.019531 335.320312 671.941406 335.238281 L 671.9375 335.230469 L 671.933594 335.226562 C 670.21875 333.480469 669.402344 331.476562 669.402344 329.03125 C 669.402344 328.292969 669.515625 327.746094 669.675781 327.402344 C 669.820312 327.097656 669.863281 327.074219 669.917969 327.003906 Z M 669.917969 327.003906 " fill-opacity="1" fill-rule="nonzero"/><g fill="#004aad" fill-opacity="1"><g transform="translate(684.660909, 462.999981)"><g><path d="M 5.257812 -1.359375 C 5.558594 -1.941406 5.699219 -2.558594 5.699219 -3.238281 C 5.699219 -4.660156 5.078125 -6.097656 4.199219 -7.277344 C 5.457031 -8.738281 5.9375 -10.15625 5.9375 -11.355469 C 5.9375 -12.816406 5.199219 -13.898438 4.097656 -14.214844 C 3.820312 -14.296875 3.558594 -14.335938 3.320312 -14.335938 C 1.820312 -14.335938 0.941406 -12.957031 0.941406 -11.355469 C 0.941406 -9.597656 2.039062 -8.578125 3.160156 -7.296875 C 1.917969 -5.957031 0.601562 -4.839844 0.601562 -2.917969 C 0.601562 -1.160156 1.898438 0.0195312 3.199219 0.0195312 C 3.980469 0.0195312 4.757812 -0.398438 5.257812 -1.359375 Z M 3.699219 -7.898438 C 3.039062 -8.679688 2.378906 -9.296875 1.980469 -10.15625 C 1.820312 -10.496094 1.738281 -10.878906 1.738281 -11.335938 C 1.738281 -12.398438 2.28125 -13.515625 3.339844 -13.515625 C 3.519531 -13.515625 3.699219 -13.496094 3.878906 -13.4375 C 4.617188 -13.214844 5.140625 -12.457031 5.140625 -11.355469 C 5.140625 -10.378906 4.71875 -9.175781 3.699219 -7.898438 Z M 4.539062 -1.738281 C 4.199219 -1.078125 3.699219 -0.78125 3.160156 -0.78125 C 2.28125 -0.78125 1.398438 -1.640625 1.398438 -2.917969 C 1.398438 -4.4375 2.480469 -5.378906 3.660156 -6.660156 C 4.378906 -5.679688 4.898438 -4.4375 4.898438 -3.238281 C 4.898438 -2.699219 4.777344 -2.199219 4.539062 -1.738281 Z M 4.539062 -1.738281 "/></g></g></g><g fill="#004aad" fill-opacity="1"><g transform="translate(691.118364, 462.999981)"><g><path d="M 4.9375 0 C 5.140625 0 5.738281 -0.0195312 6.257812 -0.339844 C 8.117188 -1.359375 9.078125 -5 9.078125 -7.878906 C 9.078125 -8.597656 9.019531 -9.257812 8.898438 -9.835938 C 8.378906 -12.535156 6.917969 -14.316406 5.21875 -14.316406 C 4.199219 -14.316406 3.140625 -13.714844 2.121094 -12.296875 C 0.980469 -10.699219 0.441406 -8.597656 0.441406 -6.578125 C 0.441406 -3.160156 1.980469 0 4.859375 0 Z M 4.859375 -0.800781 C 2.480469 -0.800781 1.257812 -3.578125 1.257812 -6.558594 C 1.257812 -9.378906 2.359375 -12.457031 4.679688 -13.417969 C 4.820312 -13.476562 5 -13.515625 5.21875 -13.515625 C 6.679688 -13.515625 8.277344 -11.21875 8.277344 -7.859375 C 8.277344 -7.136719 8.21875 -6.339844 8.039062 -5.519531 C 7.597656 -3.480469 6.957031 -0.800781 4.859375 -0.800781 Z M 4.859375 -0.800781 "/></g></g></g><g fill="#004aad" fill-opacity="1"><g transform="translate(700.73457, 462.999981)"><g><path d="M 1.101562 -11.617188 C 1.320312 -11.675781 1.460938 -11.796875 1.460938 -12.015625 L 1.460938 -12.058594 C 1.441406 -12.355469 1.417969 -12.597656 1.417969 -12.898438 C 1.417969 -13.214844 1.441406 -13.535156 1.480469 -13.855469 C 1.539062 -14.078125 1.359375 -14.257812 1.140625 -14.316406 C 0.917969 -14.335938 0.738281 -14.195312 0.679688 -13.976562 C 0.621094 -13.597656 0.601562 -13.238281 0.601562 -12.855469 C 0.601562 -12.558594 0.621094 -12.257812 0.660156 -11.976562 C 0.679688 -11.757812 0.839844 -11.617188 1.058594 -11.617188 Z M 1.101562 -11.617188 "/></g></g></g><g fill="#004aad" fill-opacity="1"><g transform="translate(702.813756, 462.999981)"><g><path d="M -0.539062 -2.980469 C -0.578125 -2.878906 -0.601562 -2.78125 -0.601562 -2.679688 C -0.601562 -2.179688 -0.160156 -1.878906 0.339844 -1.878906 C 1 -1.878906 1.757812 -2.378906 1.757812 -3.71875 L 1.757812 -3.878906 C 1.757812 -3.9375 1.757812 -4 1.738281 -4.058594 C 2.679688 -4.757812 3.617188 -5.339844 4.738281 -5.71875 C 4.917969 -5.777344 5.019531 -5.917969 5.019531 -6.097656 C 5.019531 -6.160156 5.019531 -6.21875 5 -6.238281 C 4.9375 -6.398438 4.796875 -6.5 4.640625 -6.5 C 4.578125 -6.5 4.519531 -6.5 4.5 -6.476562 C 3.398438 -6.097656 2.480469 -5.558594 1.578125 -4.917969 C 1.417969 -5.558594 0.941406 -6.578125 0.941406 -7.277344 C 0.941406 -7.519531 1 -7.699219 1.101562 -7.796875 C 1.160156 -7.859375 1.28125 -7.996094 1.5 -7.996094 C 1.640625 -7.996094 1.800781 -7.957031 1.980469 -7.859375 C 2.058594 -7.839844 2.121094 -7.816406 2.160156 -7.816406 C 2.300781 -7.816406 2.417969 -7.878906 2.519531 -8.019531 C 2.558594 -8.078125 2.578125 -8.136719 2.578125 -8.21875 C 2.578125 -8.378906 2.5 -8.496094 2.359375 -8.558594 C 2.078125 -8.71875 1.800781 -8.796875 1.5 -8.796875 C 0.761719 -8.796875 0.140625 -8.238281 0.140625 -7.21875 C 0.140625 -7.078125 0.160156 -6.957031 0.179688 -6.796875 C 0.339844 -5.898438 0.71875 -5.296875 0.898438 -4.398438 C -0.121094 -3.617188 -0.398438 -3.359375 -0.539062 -2.980469 Z M 0.199219 -2.699219 C 0.261719 -2.839844 0.480469 -3.039062 0.941406 -3.417969 C 0.839844 -2.679688 0.339844 -2.597656 0.199219 -2.699219 Z M 0.199219 -2.699219 "/></g></g></g><g fill="#004aad" fill-opacity="1"><g transform="translate(710.970543, 462.999981)"><g><path d="M 7.316406 0.320312 C 7.476562 0.261719 7.617188 0.121094 7.617188 -0.0585938 C 7.617188 -0.121094 7.597656 -0.121094 7.597656 -0.179688 C 7.539062 -0.441406 7.519531 -0.738281 7.519531 -1.121094 C 7.519531 -2.660156 7.957031 -4.878906 8.019531 -5.71875 C 8.039062 -5.9375 7.878906 -6.117188 7.65625 -6.136719 C 7.4375 -6.199219 7.277344 -6.039062 7.21875 -5.820312 C 7.058594 -4.699219 6.917969 -1.839844 4.359375 -0.941406 C 4.019531 -0.820312 3.679688 -0.761719 3.339844 -0.761719 C 2 -0.761719 0.800781 -1.800781 0.800781 -4.21875 C 0.800781 -5.417969 0.980469 -6.578125 1.359375 -7.699219 C 2.578125 -11.316406 5.398438 -13.578125 6.660156 -13.578125 C 7.117188 -13.578125 7.339844 -13.335938 7.339844 -12.835938 C 7.339844 -12.136719 7.058594 -10.816406 6.320312 -9.71875 C 6.277344 -9.65625 6.257812 -9.578125 6.257812 -9.519531 C 6.257812 -9.378906 6.320312 -9.257812 6.4375 -9.15625 C 6.5 -9.117188 6.558594 -9.097656 6.636719 -9.097656 C 6.777344 -9.097656 6.898438 -9.15625 7 -9.277344 C 7.457031 -9.976562 7.796875 -10.855469 8.019531 -11.71875 C 8.097656 -12.117188 8.136719 -12.476562 8.136719 -12.777344 C 8.136719 -13.898438 7.617188 -14.375 6.816406 -14.375 C 4.5 -14.375 0 -10.175781 0 -4.277344 C 0 -1.257812 1.621094 0.0390625 3.378906 0.0390625 C 4.597656 0.0390625 5.878906 -0.601562 6.738281 -1.71875 C 6.71875 -1.578125 6.71875 -1.460938 6.71875 -1.339844 L 6.71875 -1.039062 C 6.71875 -0.460938 6.777344 -0.199219 6.839844 0.0195312 C 6.878906 0.21875 7.019531 0.320312 7.238281 0.320312 Z M 7.316406 0.320312 "/></g></g></g><g fill="#004aad" fill-opacity="1"><g transform="translate(720.026974, 462.999981)"><g><path d="M 3.179688 -3.738281 C 3.480469 -4.277344 3.660156 -4.898438 3.660156 -5.519531 C 3.878906 -5.480469 4.097656 -5.457031 4.359375 -5.457031 C 4.820312 -5.457031 5.320312 -5.539062 5.859375 -5.679688 C 6.058594 -5.738281 6.160156 -5.878906 6.160156 -6.097656 L 6.160156 -6.179688 C 6.097656 -6.339844 5.9375 -6.476562 5.757812 -6.476562 C 5.699219 -6.476562 5.71875 -6.457031 5.660156 -6.457031 C 5.199219 -6.320312 4.777344 -6.257812 4.378906 -6.257812 C 4.058594 -6.257812 3.777344 -6.320312 3.539062 -6.378906 C 3.378906 -7.097656 2.71875 -8.179688 1.960938 -8.078125 C 1.898438 -8.117188 1.820312 -8.136719 1.738281 -8.136719 C 1.640625 -8.136719 1.539062 -8.117188 1.480469 -8.058594 C 0.898438 -7.558594 0.460938 -6.917969 0.238281 -6.136719 C 0.101562 -5.699219 0.0390625 -5.277344 0.0390625 -4.878906 C 0.0390625 -3.519531 0.800781 -2.660156 1.660156 -2.660156 C 2.199219 -2.660156 2.71875 -3 3.179688 -3.738281 Z M 2.480469 -4.160156 C 2.179688 -3.679688 1.898438 -3.4375 1.640625 -3.4375 C 1.179688 -3.4375 0.859375 -4.097656 0.859375 -4.957031 C 0.859375 -5.597656 1.058594 -6.359375 1.558594 -7 C 1.738281 -6.539062 2.179688 -6.078125 2.839844 -5.777344 C 2.839844 -5.699219 2.859375 -5.617188 2.859375 -5.519531 C 2.859375 -5.019531 2.699219 -4.539062 2.480469 -4.160156 Z M 2.480469 -4.160156 "/></g></g></g><g fill="#004aad" fill-opacity="1"><g transform="translate(725.284904, 462.999981)"><g><path d="M 1.820312 -2.660156 C 3.058594 -2.660156 4.417969 -4.796875 5 -5.859375 C 5.019531 -5.898438 5.039062 -5.957031 5.039062 -6.058594 C 5.039062 -6.21875 4.980469 -6.339844 4.839844 -6.417969 C 4.757812 -6.4375 4.699219 -6.457031 4.660156 -6.457031 C 4.5 -6.457031 4.378906 -6.378906 4.300781 -6.238281 C 3.558594 -4.917969 2.4375 -3.460938 1.839844 -3.460938 C 1.78125 -3.460938 1.738281 -3.480469 1.679688 -3.5 C 1.417969 -3.660156 1 -3.898438 1 -5.738281 C 1 -7.398438 1.339844 -10.015625 2.121094 -13.855469 C 2.160156 -14.117188 2.058594 -14.277344 1.800781 -14.335938 C 1.578125 -14.394531 1.398438 -14.238281 1.339844 -14.015625 C 0.859375 -11.597656 0.199219 -8.316406 0.199219 -5.917969 C 0.199219 -4.019531 0.601562 -2.660156 1.820312 -2.660156 Z M 1.820312 -2.660156 "/></g></g></g><g fill="#004aad" fill-opacity="1"><g transform="translate(729.363292, 462.999981)"><g><path d="M 0.5 -2.800781 C 0.679688 -2.699219 0.859375 -2.640625 1.039062 -2.640625 C 2.28125 -2.640625 3.597656 -4.679688 4.238281 -5.859375 C 4.257812 -5.9375 4.277344 -6 4.277344 -6.039062 C 4.277344 -6.179688 4.21875 -6.296875 4.078125 -6.398438 C 4 -6.417969 3.9375 -6.4375 3.898438 -6.4375 C 3.738281 -6.4375 3.617188 -6.378906 3.519531 -6.238281 C 2.699219 -4.777344 1.660156 -3.460938 1.058594 -3.460938 C 1 -3.460938 0.960938 -3.480469 0.898438 -3.5 C 0.761719 -3.578125 0.699219 -3.777344 0.699219 -4.117188 C 0.699219 -5.140625 1.320312 -7.078125 1.480469 -7.597656 C 1.539062 -7.816406 1.417969 -8.039062 1.199219 -8.097656 C 0.980469 -8.15625 0.761719 -8.019531 0.699219 -7.796875 C 0.378906 -6.617188 -0.078125 -5.21875 -0.078125 -4.160156 C -0.078125 -3.539062 0.078125 -3.058594 0.5 -2.800781 Z M 1.621094 -9.21875 C 1.820312 -9.21875 1.941406 -9.316406 2 -9.496094 L 2.179688 -10.097656 C 2.257812 -10.398438 2.019531 -10.597656 1.78125 -10.597656 C 1.621094 -10.597656 1.460938 -10.515625 1.398438 -10.296875 L 1.320312 -10.015625 L 1.238281 -9.71875 C 1.179688 -9.476562 1.320312 -9.21875 1.621094 -9.21875 Z M 1.621094 -9.21875 "/></g></g></g><g fill="#004aad" fill-opacity="1"><g transform="translate(732.681987, 462.999981)"><g><path d="M -0.539062 -2.980469 C -0.578125 -2.878906 -0.601562 -2.78125 -0.601562 -2.679688 C -0.601562 -2.179688 -0.160156 -1.878906 0.339844 -1.878906 C 1 -1.878906 1.757812 -2.378906 1.757812 -3.71875 L 1.757812 -3.878906 C 1.757812 -3.9375 1.757812 -4 1.738281 -4.058594 C 2.679688 -4.757812 3.617188 -5.339844 4.738281 -5.71875 C 4.917969 -5.777344 5.019531 -5.917969 5.019531 -6.097656 C 5.019531 -6.160156 5.019531 -6.21875 5 -6.238281 C 4.9375 -6.398438 4.796875 -6.5 4.640625 -6.5 C 4.578125 -6.5 4.519531 -6.5 4.5 -6.476562 C 3.398438 -6.097656 2.480469 -5.558594 1.578125 -4.917969 C 1.417969 -5.558594 0.941406 -6.578125 0.941406 -7.277344 C 0.941406 -7.519531 1 -7.699219 1.101562 -7.796875 C 1.160156 -7.859375 1.28125 -7.996094 1.5 -7.996094 C 1.640625 -7.996094 1.800781 -7.957031 1.980469 -7.859375 C 2.058594 -7.839844 2.121094 -7.816406 2.160156 -7.816406 C 2.300781 -7.816406 2.417969 -7.878906 2.519531 -8.019531 C 2.558594 -8.078125 2.578125 -8.136719 2.578125 -8.21875 C 2.578125 -8.378906 2.5 -8.496094 2.359375 -8.558594 C 2.078125 -8.71875 1.800781 -8.796875 1.5 -8.796875 C 0.761719 -8.796875 0.140625 -8.238281 0.140625 -7.21875 C 0.140625 -7.078125 0.160156 -6.957031 0.179688 -6.796875 C 0.339844 -5.898438 0.71875 -5.296875 0.898438 -4.398438 C -0.121094 -3.617188 -0.398438 -3.359375 -0.539062 -2.980469 Z M 0.199219 -2.699219 C 0.261719 -2.839844 0.480469 -3.039062 0.941406 -3.417969 C 0.839844 -2.679688 0.339844 -2.597656 0.199219 -2.699219 Z M 0.199219 -2.699219 "/></g></g></g><g fill="#004aad" fill-opacity="1"><g transform="translate(736.840346, 462.999981)"><g><path d="M 3.179688 -3.738281 C 3.480469 -4.277344 3.660156 -4.898438 3.660156 -5.519531 C 3.878906 -5.480469 4.097656 -5.457031 4.359375 -5.457031 C 4.820312 -5.457031 5.320312 -5.539062 5.859375 -5.679688 C 6.058594 -5.738281 6.160156 -5.878906 6.160156 -6.097656 L 6.160156 -6.179688 C 6.097656 -6.339844 5.9375 -6.476562 5.757812 -6.476562 C 5.699219 -6.476562 5.71875 -6.457031 5.660156 -6.457031 C 5.199219 -6.320312 4.777344 -6.257812 4.378906 -6.257812 C 4.058594 -6.257812 3.777344 -6.320312 3.539062 -6.378906 C 3.378906 -7.097656 2.71875 -8.179688 1.960938 -8.078125 C 1.898438 -8.117188 1.820312 -8.136719 1.738281 -8.136719 C 1.640625 -8.136719 1.539062 -8.117188 1.480469 -8.058594 C 0.898438 -7.558594 0.460938 -6.917969 0.238281 -6.136719 C 0.101562 -5.699219 0.0390625 -5.277344 0.0390625 -4.878906 C 0.0390625 -3.519531 0.800781 -2.660156 1.660156 -2.660156 C 2.199219 -2.660156 2.71875 -3 3.179688 -3.738281 Z M 2.480469 -4.160156 C 2.179688 -3.679688 1.898438 -3.4375 1.640625 -3.4375 C 1.179688 -3.4375 0.859375 -4.097656 0.859375 -4.957031 C 0.859375 -5.597656 1.058594 -6.359375 1.558594 -7 C 1.738281 -6.539062 2.179688 -6.078125 2.839844 -5.777344 C 2.839844 -5.699219 2.859375 -5.617188 2.859375 -5.519531 C 2.859375 -5.019531 2.699219 -4.539062 2.480469 -4.160156 Z M 2.480469 -4.160156 "/></g></g></g><g fill="#004aad" fill-opacity="1"><g transform="translate(742.098277, 462.999981)"><g><path d="M 5.917969 0 C 6.136719 -0.0195312 6.277344 -0.179688 6.277344 -0.398438 L 6.277344 -0.441406 C 6.019531 -2.78125 5.917969 -5.71875 5.917969 -8.277344 L 5.917969 -9.476562 C 6.179688 -10.539062 6.597656 -12.398438 6.597656 -13.355469 C 6.597656 -13.757812 6.539062 -14.015625 6.417969 -14.15625 C 6.320312 -14.296875 6.160156 -14.375 5.976562 -14.375 C 5.839844 -14.375 5.71875 -14.316406 5.636719 -14.214844 C 5.179688 -13.695312 5.117188 -10.398438 5.117188 -9.578125 C 4.617188 -7.476562 3.898438 -5.480469 2.21875 -3.980469 C 1.820312 -3.617188 1.480469 -3.4375 1.179688 -3.4375 C 0.761719 -3.4375 0.539062 -3.839844 0.539062 -4.398438 C 0.539062 -5.617188 1.539062 -7.4375 3.699219 -7.378906 C 3.917969 -7.359375 4.097656 -7.539062 4.097656 -7.757812 C 4.117188 -7.976562 3.9375 -8.15625 3.71875 -8.179688 C 1.121094 -8.238281 -0.261719 -6.078125 -0.261719 -4.398438 C -0.261719 -3.4375 0.21875 -2.660156 1.199219 -2.660156 C 2.800781 -2.660156 4.5 -5.339844 5.117188 -6.859375 C 5.179688 -4.457031 5.257812 -2.179688 5.480469 -0.359375 C 5.5 -0.121094 5.636719 0 5.878906 0 Z M 5.917969 0 "/></g></g></g><g fill="#004aad" fill-opacity="1"><g transform="translate(749.35541, 462.999981)"><g><path d="M -0.0585938 -2.839844 C 0.121094 -2.71875 0.320312 -2.660156 0.539062 -2.660156 C 1.28125 -2.660156 2.140625 -3.519531 2.597656 -4.257812 C 2.539062 -3.320312 2.980469 -2.660156 3.679688 -2.660156 C 4.480469 -2.660156 5.636719 -3.519531 6.917969 -5.859375 C 6.9375 -5.9375 6.957031 -6 6.957031 -6.039062 C 6.957031 -6.199219 6.878906 -6.320312 6.738281 -6.398438 C 6.699219 -6.417969 6.636719 -6.4375 6.558594 -6.4375 C 6.398438 -6.4375 6.277344 -6.378906 6.199219 -6.238281 C 5.558594 -4.957031 4.378906 -3.480469 3.800781 -3.480469 C 3.578125 -3.480469 3.460938 -3.660156 3.460938 -4.199219 C 3.460938 -4.457031 3.480469 -4.777344 3.558594 -5.179688 C 3.617188 -5.597656 3.699219 -6.019531 3.839844 -6.398438 C 3.9375 -6.699219 3.757812 -6.957031 3.460938 -6.957031 C 3.320312 -6.957031 3.199219 -6.878906 3.097656 -6.71875 C 2.621094 -5.796875 1.839844 -4.277344 1.019531 -3.679688 C 0.839844 -3.539062 0.699219 -3.480469 0.558594 -3.480469 C 0.339844 -3.480469 0.238281 -3.640625 0.238281 -3.980469 C 0.238281 -5.019531 1.417969 -7.339844 3.558594 -7.339844 C 3.777344 -7.339844 3.960938 -7.519531 3.960938 -7.738281 C 3.960938 -7.957031 3.777344 -8.136719 3.558594 -8.136719 C 1.058594 -8.136719 -0.539062 -5.597656 -0.539062 -3.980469 C -0.539062 -3.480469 -0.378906 -3.058594 -0.0585938 -2.839844 Z M -0.0585938 -2.839844 "/></g></g></g><g fill="#000000" fill-opacity="1"><g transform="translate(683.060133, 492.300019)"><g><path d="M 1.054688 0 C 2.363281 0 4.414062 -1.246094 4.414062 -2.675781 C 4.414062 -2.761719 4.414062 -2.820312 4.402344 -2.855469 C 6.457031 -3.300781 7.03125 -2.941406 7.03125 -3.382812 C 7.019531 -3.539062 6.9375 -3.625 6.78125 -3.625 C 5.808594 -3.589844 4.980469 -3.46875 4.273438 -3.3125 C 4.054688 -3.730469 3.683594 -4.03125 3.167969 -4.1875 C 3.898438 -4.390625 4.644531 -4.644531 5.328125 -5.027344 C 6.421875 -5.617188 6.816406 -6.335938 6.816406 -6.949219 C 6.816406 -7.222656 6.742188 -7.464844 6.589844 -7.679688 C 6.121094 -8.351562 5.398438 -8.617188 4.585938 -8.617188 C 2.640625 -8.617188 0.226562 -7.078125 0 -5.507812 C -0.0117188 -5.375 0.0703125 -5.269531 0.203125 -5.230469 C 0.335938 -5.21875 0.445312 -5.304688 0.480469 -5.4375 C 0.671875 -6.730469 2.878906 -8.136719 4.585938 -8.136719 C 5.257812 -8.136719 5.84375 -7.921875 6.191406 -7.402344 C 6.289062 -7.261719 6.335938 -7.105469 6.335938 -6.949219 C 6.335938 -6.382812 5.808594 -5.832031 5.101562 -5.449219 C 4.34375 -5.027344 3.550781 -4.777344 2.734375 -4.570312 C 2.832031 -5.292969 2.953125 -5.953125 3.085938 -6.46875 C 3.121094 -6.601562 3.046875 -6.730469 2.914062 -6.769531 C 2.785156 -6.804688 2.652344 -6.71875 2.617188 -6.589844 C 2.472656 -6 2.339844 -5.230469 2.230469 -4.453125 C 2.113281 -4.414062 1.992188 -4.390625 1.871094 -4.367188 L 1.511719 -4.296875 C 1.390625 -4.273438 1.332031 -4.199219 1.332031 -4.066406 L 1.332031 -4.03125 C 1.34375 -3.925781 1.441406 -3.828125 1.546875 -3.828125 L 1.570312 -3.828125 C 1.765625 -3.828125 1.957031 -3.839844 2.148438 -3.839844 L 2.015625 -2.519531 C 0.78125 -1.847656 0.324219 -1.164062 0.324219 -0.648438 C 0.324219 -0.265625 0.613281 0 1.054688 0 Z M 1.859375 -0.625 C 1.546875 -0.515625 1.308594 -0.46875 1.128906 -0.46875 C 0.910156 -0.46875 0.804688 -0.539062 0.804688 -0.683594 C 0.804688 -0.984375 1.308594 -1.546875 1.980469 -1.945312 L 1.980469 -1.824219 C 1.980469 -1.667969 2.050781 -1.585938 2.207031 -1.570312 L 2.21875 -1.570312 C 2.351562 -1.570312 2.449219 -1.667969 2.460938 -1.800781 C 2.460938 -1.933594 2.472656 -2.0625 2.484375 -2.207031 C 2.855469 -2.386719 3.324219 -2.566406 3.9375 -2.746094 C 3.996094 -1.789062 2.761719 -0.949219 1.859375 -0.625 Z M 2.628906 -3.816406 C 3.097656 -3.757812 3.539062 -3.574219 3.78125 -3.203125 C 3.289062 -3.058594 2.867188 -2.914062 2.519531 -2.761719 Z M 2.628906 -3.816406 "/></g></g></g><g fill="#000000" fill-opacity="1"><g transform="translate(689.744146, 492.300019)"><g><path d="M -0.0351562 -1.703125 C 0.0703125 -1.632812 0.191406 -1.597656 0.324219 -1.597656 C 0.769531 -1.597656 1.285156 -2.113281 1.558594 -2.554688 C 1.523438 -1.992188 1.789062 -1.597656 2.207031 -1.597656 C 2.6875 -1.597656 3.382812 -2.113281 4.152344 -3.515625 C 4.164062 -3.5625 4.175781 -3.601562 4.175781 -3.625 C 4.175781 -3.71875 4.128906 -3.792969 4.042969 -3.839844 C 4.019531 -3.851562 3.984375 -3.863281 3.9375 -3.863281 C 3.839844 -3.863281 3.769531 -3.828125 3.71875 -3.742188 C 3.335938 -2.976562 2.628906 -2.089844 2.28125 -2.089844 C 2.148438 -2.089844 2.074219 -2.195312 2.074219 -2.519531 C 2.074219 -2.675781 2.089844 -2.867188 2.136719 -3.109375 C 2.171875 -3.359375 2.21875 -3.613281 2.304688 -3.839844 C 2.363281 -4.019531 2.257812 -4.175781 2.074219 -4.175781 C 1.992188 -4.175781 1.921875 -4.128906 1.859375 -4.03125 C 1.570312 -3.480469 1.105469 -2.566406 0.613281 -2.207031 C 0.503906 -2.125 0.421875 -2.089844 0.335938 -2.089844 C 0.203125 -2.089844 0.144531 -2.183594 0.144531 -2.386719 C 0.144531 -3.011719 0.851562 -4.402344 2.136719 -4.402344 C 2.269531 -4.402344 2.375 -4.511719 2.375 -4.644531 C 2.375 -4.777344 2.269531 -4.882812 2.136719 -4.882812 C 0.636719 -4.882812 -0.324219 -3.359375 -0.324219 -2.386719 C -0.324219 -2.089844 -0.226562 -1.835938 -0.0351562 -1.703125 Z M -0.0351562 -1.703125 "/></g></g></g><g fill="#000000" fill-opacity="1"><g transform="translate(693.332154, 492.300019)"><g><path d="M 1.261719 -1.609375 C 2.039062 -1.609375 3.011719 -2.050781 3.898438 -3.515625 C 3.925781 -3.550781 3.9375 -3.589844 3.9375 -3.648438 C 3.9375 -3.730469 3.898438 -3.804688 3.816406 -3.851562 C 3.792969 -3.863281 3.757812 -3.875 3.707031 -3.875 C 3.613281 -3.875 3.539062 -3.839844 3.492188 -3.769531 C 2.722656 -2.496094 1.859375 -2.0625 1.246094 -2.0625 C 0.804688 -2.0625 0.503906 -2.269531 0.421875 -2.542969 C 0.394531 -2.628906 0.382812 -2.710938 0.382812 -2.808594 C 0.382812 -3.539062 1.140625 -4.429688 1.511719 -4.429688 C 1.597656 -4.429688 1.644531 -4.390625 1.679688 -4.320312 L 1.679688 -4.285156 C 1.667969 -4.234375 1.65625 -4.199219 1.65625 -4.1875 C 1.65625 -4.09375 1.703125 -4.019531 1.800781 -3.960938 C 1.847656 -3.949219 1.882812 -3.9375 1.894531 -3.9375 C 1.992188 -3.9375 2.0625 -3.984375 2.125 -4.09375 C 2.160156 -4.152344 2.171875 -4.222656 2.171875 -4.308594 C 2.171875 -4.632812 1.859375 -4.90625 1.511719 -4.90625 C 0.707031 -4.90625 -0.0859375 -3.730469 -0.0859375 -2.773438 C -0.0859375 -2.136719 0.277344 -1.609375 1.261719 -1.609375 Z M 1.261719 -1.609375 "/></g></g></g><g fill="#000000" fill-opacity="1"><g transform="translate(696.644166, 492.300019)"><g><path d="M 0.238281 3.253906 C 0.371094 3.253906 0.46875 3.15625 0.46875 3.023438 L 0.46875 1.90625 C 0.46875 0.71875 0.480469 -0.457031 0.515625 -1.65625 C 0.898438 -1.667969 1.285156 -1.90625 1.585938 -2.160156 C 2.125 -1.691406 2.566406 -1.511719 2.988281 -1.511719 C 4.261719 -1.511719 4.882812 -3.347656 5.207031 -3.707031 C 5.242188 -3.769531 5.269531 -3.816406 5.269531 -3.863281 C 5.269531 -3.925781 5.242188 -3.984375 5.183594 -4.042969 C 5.136719 -4.09375 5.089844 -4.117188 5.027344 -4.117188 C 4.96875 -4.117188 4.90625 -4.09375 4.847656 -4.03125 C 4.390625 -3.539062 3.972656 -2.003906 2.976562 -2.003906 C 2.6875 -2.003906 2.351562 -2.148438 1.933594 -2.496094 C 2.257812 -2.890625 3.046875 -3.875 3.046875 -4.570312 C 3.046875 -4.789062 2.964844 -4.945312 2.796875 -5.050781 C 2.710938 -5.101562 2.617188 -5.125 2.53125 -5.125 C 1.859375 -5.125 0.960938 -4.078125 0.574219 -3.5625 C 0.636719 -5.207031 0.71875 -6.863281 0.851562 -8.59375 C 0.863281 -8.722656 0.769531 -8.84375 0.636719 -8.84375 C 0.503906 -8.855469 0.382812 -8.761719 0.371094 -8.628906 C 0.226562 -6.625 0.144531 -4.714844 0.0585938 -2.832031 C -0.132812 -2.652344 -0.226562 -2.449219 -0.226562 -2.242188 C -0.226562 -2.039062 -0.144531 -1.871094 0.0351562 -1.765625 C 0 -0.527344 -0.0117188 0.683594 -0.0117188 1.894531 L -0.0117188 3.011719 C 0 3.144531 0.0976562 3.253906 0.226562 3.253906 Z M 1.558594 -2.796875 C 1.332031 -2.941406 1.105469 -3.058594 0.828125 -3.097656 C 1.402344 -3.984375 2.363281 -4.726562 2.542969 -4.644531 C 2.722656 -4.546875 2.136719 -3.394531 1.558594 -2.796875 Z M 0.527344 -2.351562 C 0.527344 -2.425781 0.527344 -2.496094 0.539062 -2.578125 C 0.601562 -2.605469 0.660156 -2.617188 0.730469 -2.617188 C 0.886719 -2.617188 1.054688 -2.542969 1.1875 -2.460938 C 0.910156 -2.230469 0.707031 -2.148438 0.527344 -2.136719 Z M 0.527344 -2.351562 "/></g></g></g><g fill="#000000" fill-opacity="1"><g transform="translate(701.300171, 492.300019)"><g/></g></g><g fill="#000000" fill-opacity="1"><g transform="translate(703.70018, 492.300019)"><g><path d="M 0.480469 -1.535156 C 0.613281 -1.535156 0.707031 -1.65625 0.707031 -1.789062 C 0.671875 -2.449219 0.660156 -3.070312 0.660156 -3.683594 C 0.660156 -5.136719 0.742188 -6.492188 0.925781 -7.824219 L 3.71875 -7.894531 C 3.851562 -7.894531 3.960938 -8.003906 3.960938 -8.136719 C 3.960938 -8.269531 3.851562 -8.375 3.707031 -8.375 L 0.984375 -8.304688 C 1.066406 -8.832031 1.164062 -9.347656 1.261719 -9.863281 C 1.296875 -10.007812 1.1875 -10.152344 1.03125 -10.152344 C 0.910156 -10.152344 0.828125 -10.09375 0.792969 -9.960938 C 0.683594 -9.421875 0.589844 -8.867188 0.503906 -8.304688 L -1.691406 -8.230469 C -1.824219 -8.230469 -1.921875 -8.148438 -1.921875 -8.015625 L -1.921875 -7.992188 C -1.921875 -7.859375 -1.8125 -7.753906 -1.679688 -7.753906 L 0.433594 -7.8125 C 0.265625 -6.492188 0.179688 -5.113281 0.179688 -3.683594 C 0.179688 -3.058594 0.191406 -2.4375 0.226562 -1.765625 C 0.226562 -1.632812 0.335938 -1.535156 0.46875 -1.535156 Z M 0.480469 -1.535156 "/></g></g></g><g fill="#000000" fill-opacity="1"><g transform="translate(705.956189, 492.300019)"><g><path d="M 1.90625 -2.242188 C 2.089844 -2.566406 2.195312 -2.941406 2.195312 -3.3125 C 2.328125 -3.289062 2.460938 -3.277344 2.617188 -3.277344 C 2.890625 -3.277344 3.191406 -3.324219 3.515625 -3.40625 C 3.636719 -3.445312 3.695312 -3.527344 3.695312 -3.660156 L 3.695312 -3.707031 C 3.660156 -3.804688 3.5625 -3.886719 3.457031 -3.886719 C 3.421875 -3.886719 3.433594 -3.875 3.394531 -3.875 C 3.121094 -3.792969 2.867188 -3.757812 2.628906 -3.757812 C 2.4375 -3.757812 2.269531 -3.792969 2.125 -3.828125 C 2.027344 -4.261719 1.632812 -4.90625 1.175781 -4.847656 C 1.140625 -4.871094 1.09375 -4.882812 1.042969 -4.882812 C 0.984375 -4.882812 0.925781 -4.871094 0.886719 -4.835938 C 0.539062 -4.535156 0.277344 -4.152344 0.144531 -3.683594 C 0.0585938 -3.421875 0.0234375 -3.167969 0.0234375 -2.929688 C 0.0234375 -2.113281 0.480469 -1.597656 0.996094 -1.597656 C 1.320312 -1.597656 1.632812 -1.800781 1.90625 -2.242188 Z M 1.488281 -2.496094 C 1.308594 -2.207031 1.140625 -2.0625 0.984375 -2.0625 C 0.707031 -2.0625 0.515625 -2.460938 0.515625 -2.976562 C 0.515625 -3.359375 0.636719 -3.816406 0.9375 -4.199219 C 1.042969 -3.925781 1.308594 -3.648438 1.703125 -3.46875 C 1.703125 -3.421875 1.714844 -3.371094 1.714844 -3.3125 C 1.714844 -3.011719 1.621094 -2.722656 1.488281 -2.496094 Z M 1.488281 -2.496094 "/></g></g></g><g fill="#000000" fill-opacity="1"><g transform="translate(709.112194, 492.300019)"><g/></g></g><g fill="#000000" fill-opacity="1"><g transform="translate(711.512203, 492.300019)"><g><path d="M 0.480469 -1.535156 C 0.613281 -1.535156 0.707031 -1.65625 0.707031 -1.789062 C 0.671875 -2.449219 0.660156 -3.070312 0.660156 -3.683594 C 0.660156 -5.136719 0.742188 -6.492188 0.925781 -7.824219 L 3.71875 -7.894531 C 3.851562 -7.894531 3.960938 -8.003906 3.960938 -8.136719 C 3.960938 -8.269531 3.851562 -8.375 3.707031 -8.375 L 0.984375 -8.304688 C 1.066406 -8.832031 1.164062 -9.347656 1.261719 -9.863281 C 1.296875 -10.007812 1.1875 -10.152344 1.03125 -10.152344 C 0.910156 -10.152344 0.828125 -10.09375 0.792969 -9.960938 C 0.683594 -9.421875 0.589844 -8.867188 0.503906 -8.304688 L -1.691406 -8.230469 C -1.824219 -8.230469 -1.921875 -8.148438 -1.921875 -8.015625 L -1.921875 -7.992188 C -1.921875 -7.859375 -1.8125 -7.753906 -1.679688 -7.753906 L 0.433594 -7.8125 C 0.265625 -6.492188 0.179688 -5.113281 0.179688 -3.683594 C 0.179688 -3.058594 0.191406 -2.4375 0.226562 -1.765625 C 0.226562 -1.632812 0.335938 -1.535156 0.46875 -1.535156 Z M 0.480469 -1.535156 "/></g></g></g><g fill="#000000" fill-opacity="1"><g transform="translate(713.768211, 492.300019)"><g><path d="M 0.457031 -1.714844 C 0.875 -2.554688 1.691406 -4.414062 2.160156 -4.414062 C 2.292969 -4.414062 2.375 -4.285156 2.460938 -3.949219 C 2.734375 -2.652344 3.238281 -2.039062 3.863281 -2.039062 C 4.429688 -2.039062 5.089844 -2.542969 5.722656 -3.503906 C 5.746094 -3.539062 5.761719 -3.574219 5.761719 -3.625 C 5.761719 -3.707031 5.722656 -3.78125 5.652344 -3.828125 C 5.617188 -3.851562 5.566406 -3.863281 5.519531 -3.863281 C 5.4375 -3.863281 5.363281 -3.851562 5.316406 -3.769531 C 4.859375 -3.097656 4.222656 -2.4375 3.757812 -2.53125 C 3.613281 -2.554688 3.46875 -2.664062 3.335938 -2.867188 C 2.832031 -3.660156 3.046875 -4.714844 2.292969 -4.871094 C 2.257812 -4.882812 2.207031 -4.882812 2.136719 -4.882812 C 1.476562 -4.882812 0.9375 -3.78125 0.550781 -2.988281 C 0.648438 -4.871094 0.707031 -6.996094 0.960938 -8.328125 C 0.996094 -8.460938 0.898438 -8.578125 0.769531 -8.617188 C 0.636719 -8.628906 0.527344 -8.542969 0.492188 -8.410156 C 0.203125 -6.742188 0.132812 -3.996094 0 -1.847656 C -0.0117188 -1.691406 0.121094 -1.597656 0.253906 -1.597656 C 0.335938 -1.597656 0.40625 -1.632812 0.457031 -1.714844 Z M 0.457031 -1.714844 "/></g></g></g><g fill="#000000" fill-opacity="1"><g transform="translate(718.94022, 492.300019)"><g><path d="M 1.261719 -1.597656 C 2.039062 -1.597656 3 -2.039062 3.898438 -3.515625 C 3.925781 -3.550781 3.9375 -3.589844 3.9375 -3.636719 C 3.9375 -3.742188 3.898438 -3.804688 3.816406 -3.839844 C 3.78125 -3.863281 3.730469 -3.875 3.695312 -3.875 C 3.613281 -3.875 3.539062 -3.839844 3.492188 -3.769531 C 3.070312 -3.058594 2.617188 -2.59375 2.136719 -2.316406 C 1.859375 -2.171875 1.535156 -2.074219 1.210938 -2.074219 C 0.769531 -2.074219 0.382812 -2.269531 0.382812 -2.785156 C 0.382812 -2.84375 0.394531 -2.902344 0.40625 -2.988281 C 1.210938 -3.046875 2.160156 -3.636719 2.160156 -4.273438 C 2.160156 -4.621094 1.894531 -4.894531 1.511719 -4.894531 C 1.273438 -4.894531 0.984375 -4.789062 0.683594 -4.5 C 0.214844 -4.054688 -0.0859375 -3.371094 -0.0859375 -2.785156 C -0.0859375 -2.148438 0.289062 -1.597656 1.261719 -1.597656 Z M 0.574219 -3.503906 C 0.898438 -4.175781 1.296875 -4.414062 1.523438 -4.414062 C 1.609375 -4.414062 1.65625 -4.390625 1.667969 -4.332031 C 1.726562 -4.054688 1.164062 -3.601562 0.574219 -3.503906 Z M 0.574219 -3.503906 "/></g></g></g><g fill="#000000" fill-opacity="1"><g transform="translate(722.276229, 492.300019)"><g/></g></g><g fill="#000000" fill-opacity="1"><g transform="translate(724.676238, 492.300019)"><g><path d="M 0.371094 -1.585938 C 0.503906 -1.585938 0.574219 -1.644531 0.601562 -1.765625 C 0.925781 -3.011719 1.621094 -4.320312 1.789062 -4.414062 C 1.871094 -4.222656 1.847656 -3.539062 1.894531 -2.183594 C 1.90625 -2.050781 1.992188 -1.957031 2.125 -1.957031 C 2.257812 -1.945312 2.339844 -2.015625 2.375 -2.148438 C 2.4375 -2.496094 2.734375 -3.515625 2.988281 -3.863281 C 3.085938 -3.527344 3.15625 -2.496094 3.949219 -2.363281 C 3.984375 -2.363281 4.019531 -2.351562 4.066406 -2.351562 C 4.644531 -2.351562 5.195312 -3.011719 5.59375 -3.46875 C 5.628906 -3.503906 5.640625 -3.550781 5.640625 -3.613281 C 5.640625 -3.695312 5.605469 -3.757812 5.542969 -3.804688 C 5.507812 -3.839844 5.460938 -3.863281 5.398438 -3.863281 C 5.316406 -3.863281 5.257812 -3.828125 5.207031 -3.769531 C 4.535156 -2.902344 4.175781 -2.796875 4.019531 -2.832031 C 3.445312 -2.929688 3.625 -4.066406 3.226562 -4.332031 C 3.167969 -4.378906 3.097656 -4.402344 3.011719 -4.402344 C 2.976562 -4.402344 2.941406 -4.402344 2.929688 -4.390625 C 2.722656 -4.34375 2.519531 -4.09375 2.339844 -3.648438 C 2.304688 -4.367188 2.316406 -4.777344 1.933594 -4.871094 C 1.882812 -4.882812 1.835938 -4.894531 1.789062 -4.894531 C 1.632812 -4.894531 1.429688 -4.824219 1.246094 -4.5 C 1.007812 -4.105469 0.792969 -3.683594 0.613281 -3.265625 L 0.613281 -4.691406 C 0.613281 -4.824219 0.503906 -4.933594 0.371094 -4.933594 C 0.238281 -4.933594 0.132812 -4.824219 0.132812 -4.691406 L 0.132812 -1.824219 C 0.132812 -1.691406 0.238281 -1.585938 0.371094 -1.585938 Z M 0.371094 -1.585938 "/></g></g></g><g fill="#000000" fill-opacity="1"><g transform="translate(729.728244, 492.300019)"><g><path d="M 1.261719 -1.597656 C 2.039062 -1.597656 3 -2.039062 3.898438 -3.515625 C 3.925781 -3.550781 3.9375 -3.589844 3.9375 -3.636719 C 3.9375 -3.742188 3.898438 -3.804688 3.816406 -3.839844 C 3.78125 -3.863281 3.730469 -3.875 3.695312 -3.875 C 3.613281 -3.875 3.539062 -3.839844 3.492188 -3.769531 C 3.070312 -3.058594 2.617188 -2.59375 2.136719 -2.316406 C 1.859375 -2.171875 1.535156 -2.074219 1.210938 -2.074219 C 0.769531 -2.074219 0.382812 -2.269531 0.382812 -2.785156 C 0.382812 -2.84375 0.394531 -2.902344 0.40625 -2.988281 C 1.210938 -3.046875 2.160156 -3.636719 2.160156 -4.273438 C 2.160156 -4.621094 1.894531 -4.894531 1.511719 -4.894531 C 1.273438 -4.894531 0.984375 -4.789062 0.683594 -4.5 C 0.214844 -4.054688 -0.0859375 -3.371094 -0.0859375 -2.785156 C -0.0859375 -2.148438 0.289062 -1.597656 1.261719 -1.597656 Z M 0.574219 -3.503906 C 0.898438 -4.175781 1.296875 -4.414062 1.523438 -4.414062 C 1.609375 -4.414062 1.65625 -4.390625 1.667969 -4.332031 C 1.726562 -4.054688 1.164062 -3.601562 0.574219 -3.503906 Z M 0.574219 -3.503906 "/></g></g></g><g fill="#000000" fill-opacity="1"><g transform="translate(733.064254, 492.300019)"><g><path d="M 0.371094 -1.585938 C 0.503906 -1.585938 0.574219 -1.644531 0.601562 -1.765625 C 0.925781 -3.011719 1.621094 -4.320312 1.789062 -4.414062 C 1.871094 -4.222656 1.847656 -3.539062 1.894531 -2.183594 C 1.90625 -2.050781 1.992188 -1.957031 2.125 -1.957031 C 2.257812 -1.945312 2.339844 -2.015625 2.375 -2.148438 C 2.4375 -2.496094 2.734375 -3.515625 2.988281 -3.863281 C 3.085938 -3.527344 3.15625 -2.496094 3.949219 -2.363281 C 3.984375 -2.363281 4.019531 -2.351562 4.066406 -2.351562 C 4.644531 -2.351562 5.195312 -3.011719 5.59375 -3.46875 C 5.628906 -3.503906 5.640625 -3.550781 5.640625 -3.613281 C 5.640625 -3.695312 5.605469 -3.757812 5.542969 -3.804688 C 5.507812 -3.839844 5.460938 -3.863281 5.398438 -3.863281 C 5.316406 -3.863281 5.257812 -3.828125 5.207031 -3.769531 C 4.535156 -2.902344 4.175781 -2.796875 4.019531 -2.832031 C 3.445312 -2.929688 3.625 -4.066406 3.226562 -4.332031 C 3.167969 -4.378906 3.097656 -4.402344 3.011719 -4.402344 C 2.976562 -4.402344 2.941406 -4.402344 2.929688 -4.390625 C 2.722656 -4.34375 2.519531 -4.09375 2.339844 -3.648438 C 2.304688 -4.367188 2.316406 -4.777344 1.933594 -4.871094 C 1.882812 -4.882812 1.835938 -4.894531 1.789062 -4.894531 C 1.632812 -4.894531 1.429688 -4.824219 1.246094 -4.5 C 1.007812 -4.105469 0.792969 -3.683594 0.613281 -3.265625 L 0.613281 -4.691406 C 0.613281 -4.824219 0.503906 -4.933594 0.371094 -4.933594 C 0.238281 -4.933594 0.132812 -4.824219 0.132812 -4.691406 L 0.132812 -1.824219 C 0.132812 -1.691406 0.238281 -1.585938 0.371094 -1.585938 Z M 0.371094 -1.585938 "/></g></g></g><g fill="#000000" fill-opacity="1"><g transform="translate(738.116259, 492.300019)"><g><path d="M 0.371094 -1.585938 C 0.503906 -1.585938 0.574219 -1.644531 0.601562 -1.765625 C 0.925781 -3.011719 1.621094 -4.320312 1.789062 -4.414062 C 1.871094 -4.222656 1.847656 -3.539062 1.894531 -2.183594 C 1.90625 -2.050781 1.992188 -1.957031 2.125 -1.957031 C 2.257812 -1.945312 2.339844 -2.015625 2.375 -2.148438 C 2.4375 -2.496094 2.734375 -3.515625 2.988281 -3.863281 C 3.085938 -3.527344 3.15625 -2.496094 3.949219 -2.363281 C 3.984375 -2.363281 4.019531 -2.351562 4.066406 -2.351562 C 4.644531 -2.351562 5.195312 -3.011719 5.59375 -3.46875 C 5.628906 -3.503906 5.640625 -3.550781 5.640625 -3.613281 C 5.640625 -3.695312 5.605469 -3.757812 5.542969 -3.804688 C 5.507812 -3.839844 5.460938 -3.863281 5.398438 -3.863281 C 5.316406 -3.863281 5.257812 -3.828125 5.207031 -3.769531 C 4.535156 -2.902344 4.175781 -2.796875 4.019531 -2.832031 C 3.445312 -2.929688 3.625 -4.066406 3.226562 -4.332031 C 3.167969 -4.378906 3.097656 -4.402344 3.011719 -4.402344 C 2.976562 -4.402344 2.941406 -4.402344 2.929688 -4.390625 C 2.722656 -4.34375 2.519531 -4.09375 2.339844 -3.648438 C 2.304688 -4.367188 2.316406 -4.777344 1.933594 -4.871094 C 1.882812 -4.882812 1.835938 -4.894531 1.789062 -4.894531 C 1.632812 -4.894531 1.429688 -4.824219 1.246094 -4.5 C 1.007812 -4.105469 0.792969 -3.683594 0.613281 -3.265625 L 0.613281 -4.691406 C 0.613281 -4.824219 0.503906 -4.933594 0.371094 -4.933594 C 0.238281 -4.933594 0.132812 -4.824219 0.132812 -4.691406 L 0.132812 -1.824219 C 0.132812 -1.691406 0.238281 -1.585938 0.371094 -1.585938 Z M 0.371094 -1.585938 "/></g></g></g><g fill="#000000" fill-opacity="1"><g transform="translate(743.168265, 492.300019)"><g><path d="M 1.90625 -2.242188 C 2.089844 -2.566406 2.195312 -2.941406 2.195312 -3.3125 C 2.328125 -3.289062 2.460938 -3.277344 2.617188 -3.277344 C 2.890625 -3.277344 3.191406 -3.324219 3.515625 -3.40625 C 3.636719 -3.445312 3.695312 -3.527344 3.695312 -3.660156 L 3.695312 -3.707031 C 3.660156 -3.804688 3.5625 -3.886719 3.457031 -3.886719 C 3.421875 -3.886719 3.433594 -3.875 3.394531 -3.875 C 3.121094 -3.792969 2.867188 -3.757812 2.628906 -3.757812 C 2.4375 -3.757812 2.269531 -3.792969 2.125 -3.828125 C 2.027344 -4.261719 1.632812 -4.90625 1.175781 -4.847656 C 1.140625 -4.871094 1.09375 -4.882812 1.042969 -4.882812 C 0.984375 -4.882812 0.925781 -4.871094 0.886719 -4.835938 C 0.539062 -4.535156 0.277344 -4.152344 0.144531 -3.683594 C 0.0585938 -3.421875 0.0234375 -3.167969 0.0234375 -2.929688 C 0.0234375 -2.113281 0.480469 -1.597656 0.996094 -1.597656 C 1.320312 -1.597656 1.632812 -1.800781 1.90625 -2.242188 Z M 1.488281 -2.496094 C 1.308594 -2.207031 1.140625 -2.0625 0.984375 -2.0625 C 0.707031 -2.0625 0.515625 -2.460938 0.515625 -2.976562 C 0.515625 -3.359375 0.636719 -3.816406 0.9375 -4.199219 C 1.042969 -3.925781 1.308594 -3.648438 1.703125 -3.46875 C 1.703125 -3.421875 1.714844 -3.371094 1.714844 -3.3125 C 1.714844 -3.011719 1.621094 -2.722656 1.488281 -2.496094 Z M 1.488281 -2.496094 "/></g></g></g><g fill="#000000" fill-opacity="1"><g transform="translate(746.324271, 492.300019)"><g><path d="M 0.238281 -1.691406 C 0.371094 -1.691406 0.480469 -1.789062 0.480469 -1.921875 C 0.539062 -3.203125 1.789062 -4.621094 2.410156 -4.5 C 2.542969 -4.464844 2.652344 -4.546875 2.6875 -4.679688 C 2.722656 -4.8125 2.640625 -4.933594 2.507812 -4.96875 C 2.425781 -4.980469 2.363281 -4.992188 2.316406 -4.992188 C 1.644531 -4.992188 0.9375 -4.210938 0.589844 -3.636719 C 0.625 -3.984375 0.636719 -4.34375 0.636719 -4.714844 C 0.636719 -4.847656 0.527344 -4.957031 0.394531 -4.957031 C 0.265625 -4.957031 0.15625 -4.847656 0.15625 -4.714844 C 0.144531 -3.804688 0.0117188 -2.878906 0 -1.933594 C 0 -1.800781 0.109375 -1.703125 0.238281 -1.691406 Z M 0.238281 -1.691406 "/></g></g></g><g fill="#000000" fill-opacity="1"><g transform="translate(749.096281, 492.300019)"><g><path d="M 0.300781 -1.679688 C 0.40625 -1.621094 0.515625 -1.585938 0.625 -1.585938 C 1.367188 -1.585938 2.160156 -2.808594 2.542969 -3.515625 C 2.554688 -3.5625 2.566406 -3.601562 2.566406 -3.625 C 2.566406 -3.707031 2.53125 -3.78125 2.449219 -3.839844 C 2.398438 -3.851562 2.363281 -3.863281 2.339844 -3.863281 C 2.242188 -3.863281 2.171875 -3.828125 2.113281 -3.742188 C 1.621094 -2.867188 0.996094 -2.074219 0.636719 -2.074219 C 0.601562 -2.074219 0.574219 -2.089844 0.539062 -2.101562 C 0.457031 -2.148438 0.421875 -2.269531 0.421875 -2.472656 C 0.421875 -3.085938 0.792969 -4.246094 0.886719 -4.558594 C 0.925781 -4.691406 0.851562 -4.824219 0.71875 -4.859375 C 0.589844 -4.894531 0.457031 -4.8125 0.421875 -4.679688 C 0.226562 -3.972656 -0.046875 -3.132812 -0.046875 -2.496094 C -0.046875 -2.125 0.046875 -1.835938 0.300781 -1.679688 Z M 0.972656 -5.53125 C 1.09375 -5.53125 1.164062 -5.59375 1.199219 -5.699219 L 1.308594 -6.058594 C 1.355469 -6.238281 1.210938 -6.359375 1.066406 -6.359375 C 0.972656 -6.359375 0.875 -6.3125 0.839844 -6.179688 L 0.792969 -6.011719 L 0.742188 -5.832031 C 0.707031 -5.6875 0.792969 -5.53125 0.972656 -5.53125 Z M 0.972656 -5.53125 "/></g></g></g><g fill="#000000" fill-opacity="1"><g transform="translate(751.088285, 492.300019)"><g><path d="M 1.261719 -1.597656 C 2.039062 -1.597656 3 -2.039062 3.898438 -3.515625 C 3.925781 -3.550781 3.9375 -3.589844 3.9375 -3.636719 C 3.9375 -3.742188 3.898438 -3.804688 3.816406 -3.839844 C 3.78125 -3.863281 3.730469 -3.875 3.695312 -3.875 C 3.613281 -3.875 3.539062 -3.839844 3.492188 -3.769531 C 3.070312 -3.058594 2.617188 -2.59375 2.136719 -2.316406 C 1.859375 -2.171875 1.535156 -2.074219 1.210938 -2.074219 C 0.769531 -2.074219 0.382812 -2.269531 0.382812 -2.785156 C 0.382812 -2.84375 0.394531 -2.902344 0.40625 -2.988281 C 1.210938 -3.046875 2.160156 -3.636719 2.160156 -4.273438 C 2.160156 -4.621094 1.894531 -4.894531 1.511719 -4.894531 C 1.273438 -4.894531 0.984375 -4.789062 0.683594 -4.5 C 0.214844 -4.054688 -0.0859375 -3.371094 -0.0859375 -2.785156 C -0.0859375 -2.148438 0.289062 -1.597656 1.261719 -1.597656 Z M 0.574219 -3.503906 C 0.898438 -4.175781 1.296875 -4.414062 1.523438 -4.414062 C 1.609375 -4.414062 1.65625 -4.390625 1.667969 -4.332031 C 1.726562 -4.054688 1.164062 -3.601562 0.574219 -3.503906 Z M 0.574219 -3.503906 "/></g></g></g><g fill="#000000" fill-opacity="1"><g transform="translate(754.424295, 492.300019)"><g><path d="M -0.324219 -1.789062 C -0.347656 -1.726562 -0.359375 -1.667969 -0.359375 -1.609375 C -0.359375 -1.308594 -0.0976562 -1.128906 0.203125 -1.128906 C 0.601562 -1.128906 1.054688 -1.429688 1.054688 -2.230469 L 1.054688 -2.328125 C 1.054688 -2.363281 1.054688 -2.398438 1.042969 -2.4375 C 1.609375 -2.855469 2.171875 -3.203125 2.84375 -3.433594 C 2.953125 -3.46875 3.011719 -3.550781 3.011719 -3.660156 C 3.011719 -3.695312 3.011719 -3.730469 3 -3.742188 C 2.964844 -3.839844 2.878906 -3.898438 2.785156 -3.898438 C 2.746094 -3.898438 2.710938 -3.898438 2.699219 -3.886719 C 2.039062 -3.660156 1.488281 -3.335938 0.949219 -2.953125 C 0.851562 -3.335938 0.5625 -3.949219 0.5625 -4.367188 C 0.5625 -4.511719 0.601562 -4.621094 0.660156 -4.679688 C 0.695312 -4.714844 0.769531 -4.800781 0.898438 -4.800781 C 0.984375 -4.800781 1.078125 -4.777344 1.1875 -4.714844 C 1.234375 -4.703125 1.273438 -4.691406 1.296875 -4.691406 C 1.378906 -4.691406 1.453125 -4.726562 1.511719 -4.8125 C 1.535156 -4.847656 1.546875 -4.882812 1.546875 -4.933594 C 1.546875 -5.027344 1.5 -5.101562 1.414062 -5.136719 C 1.246094 -5.230469 1.078125 -5.28125 0.898438 -5.28125 C 0.457031 -5.28125 0.0859375 -4.945312 0.0859375 -4.332031 C 0.0859375 -4.246094 0.0976562 -4.175781 0.109375 -4.078125 C 0.203125 -3.539062 0.433594 -3.179688 0.539062 -2.640625 C -0.0703125 -2.171875 -0.238281 -2.015625 -0.324219 -1.789062 Z M 0.121094 -1.621094 C 0.15625 -1.703125 0.289062 -1.824219 0.5625 -2.050781 C 0.503906 -1.609375 0.203125 -1.558594 0.121094 -1.621094 Z M 0.121094 -1.621094 "/></g></g></g></svg>